<svg width="128" height="128" viewBox="0 0 128 128" fill="none" xmlns="http://www.w3.org/2000/svg">
<path d="M96.5094 63.8231C94.5334 63.8231 92.4534 64.1261 90.7894 64.4291L88.8133 54.2281C88.8133 54.1271 88.8133 54.1271 88.8133 54.0261C88.6053 54.1271 88.5013 54.1271 88.2933 54.2281L82.0533 55.9451L80.4933 61.3991L82.1573 70.3881C67.8052 73.5191 52.9331 73.5191 38.581 70.3881L41.285 56.0461C41.597 54.3291 43.157 53.1172 44.925 53.1172H58.6531C57.5091 52.1072 56.7811 50.5922 56.7811 48.8752C56.7811 46.6532 58.0291 44.7342 60.0051 43.8252H45.133C38.685 43.8252 33.277 48.2692 32.133 54.3291L30.1569 64.5301C28.4929 64.2271 26.4129 63.9241 24.4369 63.9241C23.2929 63.9241 22.3569 64.2271 21.7329 64.8331C21.3169 65.2371 20.7969 65.9441 20.7969 67.1561C20.7969 69.1761 22.4609 72.3071 24.4369 72.3071H25.5809C23.9169 74.0241 22.7729 76.347 22.7729 78.973V107.657C22.7729 110.081 24.7489 112 27.2449 112H32.133C34.629 112 36.605 110.081 36.605 107.657V101.294C44.509 102.102 52.5171 102.405 60.5251 102.405C68.5332 102.405 76.4373 102.001 84.4453 101.294V107.657C84.4453 110.081 86.4213 112 88.9173 112H93.8054C96.3014 112 98.2774 110.081 98.2774 107.657V78.973C98.2774 76.347 97.2374 74.0241 95.4694 72.3071H96.6134C98.5894 72.3071 100.253 69.1761 100.253 67.1561C100.253 65.1361 98.7974 63.8231 96.5094 63.8231ZM48.2531 87.962C48.2531 88.972 47.4211 89.78 46.4851 89.78C45.445 89.881 44.093 89.881 42.637 89.881C40.037 89.881 36.917 89.78 34.421 89.174C33.797 89.073 33.277 88.568 33.069 87.962C32.341 85.942 32.653 83.114 32.965 81.094C33.069 80.488 33.485 80.084 33.901 79.781C34.421 79.478 35.045 79.478 35.565 79.781L47.2131 85.336C47.8371 85.639 48.2531 86.245 48.2531 86.952V87.962ZM88.0853 87.962C87.8773 88.568 87.3573 89.073 86.7333 89.174C84.1333 89.78 81.1173 89.881 78.5173 89.881C76.9573 89.881 75.6052 89.881 74.6692 89.78C73.6292 89.78 72.9012 88.871 72.9012 87.962V86.851C72.9012 86.144 73.3172 85.538 73.9412 85.235L85.4853 79.68C86.0053 79.377 86.6293 79.478 87.1493 79.68C87.6693 79.983 88.0853 80.387 88.0853 80.993C88.5013 83.114 88.7093 86.043 88.0853 87.962Z" fill="#5C5C5C"/>
<path d="M62.3968 50.0879L70.3009 52.2089C70.7169 52.3099 71.1329 52.7139 71.2369 53.1179L73.4209 60.7939C73.8369 62.1069 75.7089 62.1069 76.1249 60.7939L78.3089 53.1179C78.4129 52.7139 78.8289 52.3099 79.2449 52.2089L87.149 50.0879C88.501 49.6839 88.501 47.8659 87.149 47.4619L79.2449 45.3409C78.8289 45.2399 78.4129 44.8359 78.3089 44.4319L76.1249 36.756C75.7089 35.443 73.8369 35.443 73.4209 36.756L71.2369 44.4319C71.1329 44.8359 70.7169 45.2399 70.3009 45.3409L62.3968 47.4619C61.0448 47.8659 61.0448 49.6839 62.3968 50.0879Z" fill="#5C5C5C"/>
<path d="M73.2097 27.2614L79.4497 28.9784C79.8657 29.0794 80.0737 29.3824 80.1777 29.6854L81.9457 35.7454C82.2577 36.7554 83.7138 36.7554 84.0258 35.7454L85.7938 29.6854C85.8978 29.2814 86.2098 29.0794 86.5218 28.9784L92.7618 27.2614C93.8018 26.9584 93.8018 25.5445 92.7618 25.2415L86.5218 23.5245C86.1058 23.4235 85.8978 23.1205 85.7938 22.8175L84.0258 16.7575C83.7138 15.7475 82.2577 15.7475 81.9457 16.7575L80.1777 22.8175C80.0737 23.2215 79.7617 23.4235 79.4497 23.5245L73.2097 25.2415C72.1697 25.5445 72.1697 26.9584 73.2097 27.2614Z" fill="#5C5C5C"/>
<path d="M107.745 40.0887L101.089 38.2707C100.673 38.1697 100.361 37.8667 100.257 37.4627L98.385 30.9988C98.073 29.8878 96.409 29.8878 96.097 30.9988L94.225 37.4627C94.121 37.8667 93.809 38.1697 93.393 38.2707L86.7369 40.0887C85.5929 40.3917 85.5929 42.0077 86.7369 42.3107L93.393 44.1287C93.809 44.2297 94.121 44.5327 94.225 44.9367L96.097 51.4007C96.409 52.5117 98.073 52.5117 98.385 51.4007L100.257 44.9367C100.361 44.5327 100.673 44.2297 101.089 44.1287L107.745 42.3107C108.785 41.9067 108.785 40.3917 107.745 40.0887Z" fill="#5C5C5C"/>
</svg>
